<svg width="40" height="40" viewBox="0 0 40 40" fill="none" xmlns="http://www.w3.org/2000/svg">
<path d="M32 20C32 20.2652 31.8946 20.5196 31.7071 20.7071C31.5196 20.8946 31.2652 21 31 21H9C8.73478 21 8.48043 20.8946 8.29289 20.7071C8.10536 20.5196 8 20.2652 8 20C8 19.7348 8.10536 19.4804 8.29289 19.2929C8.48043 19.1054 8.73478 19 9 19H31C31.2652 19 31.5196 19.1054 31.7071 19.2929C31.8946 19.4804 32 19.7348 32 20ZM9 13H31C31.2652 13 31.5196 12.8946 31.7071 12.7071C31.8946 12.5196 32 12.2652 32 12C32 11.7348 31.8946 11.4804 31.7071 11.2929C31.5196 11.1054 31.2652 11 31 11H9C8.73478 11 8.48043 11.1054 8.29289 11.2929C8.10536 11.4804 8 11.7348 8 12C8 12.2652 8.10536 12.5196 8.29289 12.7071C8.48043 12.8946 8.73478 13 9 13ZM31 27H9C8.73478 27 8.48043 27.1054 8.29289 27.2929C8.10536 27.4804 8 27.7348 8 28C8 28.2652 8.10536 28.5196 8.29289 28.7071C8.48043 28.8946 8.73478 29 9 29H31C31.2652 29 31.5196 28.8946 31.7071 28.7071C31.8946 28.5196 32 28.2652 32 28C32 27.7348 31.8946 27.4804 31.7071 27.2929C31.5196 27.1054 31.2652 27 31 27Z" fill="#292524"/>
</svg>
