<svg width="36" height="36" viewBox="0 0 36 36" fill="none" xmlns="http://www.w3.org/2000/svg">
<path d="M36 18C36 27.9411 27.9411 36 18 36C8.05888 36 0 27.9411 0 18C0 8.05888 8.05888 0 18 0C27.9411 0 36 8.05888 36 18Z" fill="white" fill-opacity="0.6"/>
<path fill-rule="evenodd" clip-rule="evenodd" d="M18 34.8C27.2784 34.8 34.8 27.2784 34.8 18C34.8 8.72162 27.2784 1.2 18 1.2C8.72162 1.2 1.2 8.72162 1.2 18C1.2 27.2784 8.72162 34.8 18 34.8ZM18 36C27.9411 36 36 27.9411 36 18C36 8.05888 27.9411 0 18 0C8.05888 0 0 8.05888 0 18C0 27.9411 8.05888 36 18 36Z" fill="#EA580C"/>
<path d="M15.0037 25.2C14.8446 25.2 14.712 25.1431 14.5794 25.0292C14.3407 24.773 14.3407 24.3743 14.5794 24.1181L20.1485 17.9965L14.5794 11.9034C14.3407 11.6471 14.3407 11.2485 14.5794 10.9922C14.8181 10.736 15.1893 10.736 15.428 10.9922L21.4214 17.5409C21.6601 17.7972 21.6601 18.1958 21.4214 18.4521L15.428 25.0007C15.3219 25.1146 15.1628 25.2 15.0037 25.2Z" fill="#EA580C"/>
</svg>
