<svg width="60" height="60" viewBox="0 0 60 60" fill="none" xmlns="http://www.w3.org/2000/svg">
<path d="M60 30C60 46.5685 46.5685 60 30 60C13.4315 60 0 46.5685 0 30C0 13.4315 13.4315 0 30 0C46.5685 0 60 13.4315 60 30Z" fill="white" fill-opacity="0.6"/>
<path fill-rule="evenodd" clip-rule="evenodd" d="M30 58C45.464 58 58 45.464 58 30C58 14.536 45.464 2 30 2C14.536 2 2 14.536 2 30C2 45.464 14.536 58 30 58ZM30 60C46.5685 60 60 46.5685 60 30C60 13.4315 46.5685 0 30 0C13.4315 0 0 13.4315 0 30C0 46.5685 13.4315 60 30 60Z" fill="#EA580C"/>
<path d="M34.9945 42C35.2597 42 35.4807 41.9051 35.7017 41.7153C36.0994 41.2882 36.0994 40.6238 35.7017 40.1967L26.4199 29.9941L35.7017 19.8389C36.0994 19.4118 36.0994 18.7474 35.7017 18.3203C35.3039 17.8932 34.6851 17.8932 34.2873 18.3203L24.2983 29.2348C23.9006 29.6619 23.9006 30.3262 24.2983 30.7533L34.2873 41.6678C34.4641 41.8576 34.7293 42 34.9945 42Z" fill="#EA580C"/>
</svg>
