<svg width="36" height="36" viewBox="0 0 36 36" fill="none" xmlns="http://www.w3.org/2000/svg">
<path d="M36 18C36 27.9411 27.9411 36 18 36C8.05888 36 0 27.9411 0 18C0 8.05888 8.05888 0 18 0C27.9411 0 36 8.05888 36 18Z" fill="white" fill-opacity="0.6"/>
<path fill-rule="evenodd" clip-rule="evenodd" d="M18 34.8C27.2784 34.8 34.8 27.2784 34.8 18C34.8 8.72162 27.2784 1.2 18 1.2C8.72162 1.2 1.2 8.72162 1.2 18C1.2 27.2784 8.72162 34.8 18 34.8ZM18 36C27.9411 36 36 27.9411 36 18C36 8.05888 27.9411 0 18 0C8.05888 0 0 8.05888 0 18C0 27.9411 8.05888 36 18 36Z" fill="#EA580C"/>
<path d="M20.9963 25.2C21.1554 25.2 21.288 25.1431 21.4206 25.0292C21.6593 24.773 21.6593 24.3743 21.4206 24.1181L15.8515 17.9965L21.4206 11.9034C21.6593 11.6471 21.6593 11.2485 21.4206 10.9922C21.1819 10.736 20.8107 10.736 20.572 10.9922L14.5786 17.5409C14.3399 17.7972 14.3399 18.1958 14.5786 18.452L20.572 25.0007C20.6781 25.1146 20.8372 25.2 20.9963 25.2Z" fill="#EA580C"/>
</svg>
