<svg width="40" height="40" viewBox="0 0 40 40" fill="none" xmlns="http://www.w3.org/2000/svg">
<path d="M33.8966 16.1576C33.7716 15.7732 33.5356 15.4345 33.2184 15.184C32.9012 14.9335 32.517 14.7826 32.1141 14.7501L24.7391 14.1551L21.8916 7.26882C21.7376 6.89359 21.4755 6.57263 21.1386 6.34674C20.8018 6.12086 20.4053 6.00024 19.9997 6.00024C19.5941 6.00024 19.1977 6.12086 18.8608 6.34674C18.5239 6.57263 18.2619 6.89359 18.1079 7.26882L15.2629 14.1538L7.88411 14.7501C7.48058 14.7842 7.09609 14.9367 6.77883 15.1883C6.46156 15.44 6.22561 15.7797 6.10056 16.1649C5.9755 16.5501 5.9669 16.9636 6.07581 17.3536C6.18473 17.7437 6.40634 18.0929 6.71286 18.3576L12.3379 23.2113L10.6241 30.4688C10.5283 30.8631 10.5517 31.277 10.6915 31.6579C10.8313 32.0388 11.0812 32.3696 11.4093 32.6083C11.7375 32.847 12.1291 32.9828 12.5346 32.9984C12.94 33.0141 13.341 32.909 13.6866 32.6963L19.9991 28.8113L26.3154 32.6963C26.6611 32.9064 27.0612 33.0096 27.4654 32.9927C27.8696 32.9759 28.2598 32.8398 28.5869 32.6016C28.9139 32.3635 29.1631 32.0339 29.3032 31.6544C29.4433 31.2748 29.468 30.8623 29.3741 30.4688L27.6541 23.2101L33.2791 18.3563C33.5881 18.0921 33.8117 17.7421 33.9217 17.3507C34.0316 16.9593 34.0229 16.544 33.8966 16.1576ZM31.9791 16.8413L25.8916 22.0913C25.7528 22.211 25.6495 22.3665 25.5931 22.5409C25.5366 22.7152 25.5292 22.9018 25.5716 23.0801L27.4316 30.9301C27.4364 30.9409 27.4369 30.9531 27.4329 30.9643C27.429 30.9755 27.4209 30.9847 27.4104 30.9901C27.3879 31.0076 27.3816 31.0038 27.3629 30.9901L20.5229 26.7838C20.3653 26.687 20.184 26.6357 19.9991 26.6357C19.8142 26.6357 19.6329 26.687 19.4754 26.7838L12.6354 30.9926C12.6166 31.0038 12.6116 31.0076 12.5879 30.9926C12.5773 30.9872 12.5692 30.978 12.5653 30.9668C12.5613 30.9556 12.5618 30.9434 12.5666 30.9326L14.4266 23.0826C14.469 22.9043 14.4616 22.7177 14.4051 22.5434C14.3487 22.369 14.2454 22.2135 14.1066 22.0938L8.01911 16.8438C8.00411 16.8313 7.99036 16.8201 8.00286 16.7813C8.01536 16.7426 8.02536 16.7476 8.04411 16.7451L16.0341 16.1001C16.2174 16.0844 16.3927 16.0184 16.5409 15.9094C16.6891 15.8005 16.8044 15.6528 16.8741 15.4826L19.9516 8.03132C19.9616 8.01007 19.9654 8.00007 19.9954 8.00007C20.0254 8.00007 20.0291 8.01007 20.0391 8.03132L23.1241 15.4826C23.1944 15.6529 23.3105 15.8004 23.4593 15.9089C23.6082 16.0175 23.7842 16.0827 23.9679 16.0976L31.9579 16.7426C31.9766 16.7426 31.9879 16.7426 31.9991 16.7788C32.0104 16.8151 31.9991 16.8288 31.9791 16.8413Z" fill="#44403C"/>
</svg>
