<svg width="40" height="40" viewBox="0 0 40 40" fill="none" xmlns="http://www.w3.org/2000/svg">
<g clip-path="url(#clip0_846_9638)">
<path fill-rule="evenodd" clip-rule="evenodd" d="M4.90039 19.9997C4.90039 11.6497 11.6504 4.89966 20.0004 4.89966C28.3504 4.89966 35.1004 11.6497 35.1004 19.9997C35.1004 28.3497 28.3504 35.0997 20.0004 35.0997C11.6504 35.0997 4.90039 28.3497 4.90039 19.9997ZM7.10039 19.9997C7.10039 27.0997 12.9004 32.8997 20.0004 32.8997C27.1004 32.8997 32.9004 27.0997 32.9004 19.9997C32.9004 12.8997 27.1004 7.09966 20.0004 7.09966C12.9004 7.09966 7.10039 12.8997 7.10039 19.9997ZM18.3473 18.9H21.8973C24.1973 18.9 26.0973 20.7 26.0473 22.95C26.0473 25.2 24.1973 27 21.8973 27H21.0973V28.2001C21.0973 28.8001 20.5973 29.3 19.9973 29.3C19.3973 29.3 18.8973 28.8001 18.8973 28.2001V27H16.4973C15.8973 27 15.3973 26.5 15.3973 25.9C15.3973 25.3 15.8973 24.8 16.4973 24.8H21.8973C22.9473 24.8 23.7973 24 23.7973 23C23.7973 22 22.9473 21.2 21.8973 21.2H18.3473C16.0473 21.2 14.1973 19.4 14.1973 17.15C14.1973 14.9 16.0473 13.1 18.3473 13.1H18.8973V11.9C18.8973 11.3 19.3973 10.8 19.9973 10.8C20.5973 10.8 21.0973 11.3 21.0973 11.9V13.1H23.4973C24.0973 13.1 24.5973 13.6 24.5973 14.2C24.5973 14.8 24.0973 15.3 23.4973 15.3H18.3473C17.2973 15.3 16.4473 16.1 16.4473 17.1C16.4473 18.1 17.2973 18.9 18.3473 18.9Z" fill="#44403C"/>
</g>
<defs>
<clipPath id="clip0_846_9638">
<rect width="32" height="32" fill="white" transform="translate(4 4)"/>
</clipPath>
</defs>
</svg>
