<svg width="60" height="60" viewBox="0 0 60 60" fill="none" xmlns="http://www.w3.org/2000/svg">
<path d="M60 30C60 46.5685 46.5685 60 30 60C13.4315 60 0 46.5685 0 30C0 13.4315 13.4315 0 30 0C46.5685 0 60 13.4315 60 30Z" fill="white" fill-opacity="0.6"/>
<path fill-rule="evenodd" clip-rule="evenodd" d="M30 58C45.464 58 58 45.464 58 30C58 14.536 45.464 2 30 2C14.536 2 2 14.536 2 30C2 45.464 14.536 58 30 58ZM30 60C46.5685 60 60 46.5685 60 30C60 13.4315 46.5685 0 30 0C13.4315 0 0 13.4315 0 30C0 46.5685 13.4315 60 30 60Z" fill="#EA580C"/>
<path d="M25.0055 42C24.7403 42 24.5193 41.9051 24.2983 41.7153C23.9006 41.2882 23.9006 40.6238 24.2983 40.1967L33.5801 29.9941L24.2983 19.8389C23.9006 19.4118 23.9006 18.7474 24.2983 18.3203C24.6961 17.8932 25.3149 17.8932 25.7127 18.3203L35.7017 29.2348C36.0994 29.6619 36.0994 30.3262 35.7017 30.7533L25.7127 41.6678C25.5359 41.8576 25.2707 42 25.0055 42Z" fill="#EA580C"/>
</svg>
