<svg width="14" height="14" viewBox="0 0 14 14" fill="none" xmlns="http://www.w3.org/2000/svg">
<path d="M13.3539 12.6461L10.2245 9.5174C11.1315 8.42846 11.5838 7.03177 11.4873 5.61786C11.3908 4.20395 10.7528 2.88168 9.70623 1.92613C8.65963 0.970578 7.28492 0.455307 5.86808 0.487507C4.45125 0.519707 3.10137 1.0969 2.09926 2.09901C1.09714 3.10112 0.519951 4.451 0.487751 5.86784C0.455551 7.28468 0.970822 8.65938 1.92637 9.70599C2.88193 10.7526 4.20419 11.3905 5.6181 11.487C7.03201 11.5836 8.42871 11.1313 9.51764 10.2243L12.6464 13.3536C12.6928 13.4001 12.748 13.437 12.8087 13.4621C12.8694 13.4872 12.9344 13.5002 13.0001 13.5002C13.0658 13.5002 13.1309 13.4872 13.1916 13.4621C13.2523 13.437 13.3074 13.4001 13.3539 13.3536C13.4003 13.3072 13.4372 13.252 13.4623 13.1913C13.4875 13.1307 13.5004 13.0656 13.5004 12.9999C13.5004 12.9342 13.4875 12.8691 13.4623 12.8085C13.4372 12.7478 13.4003 12.6926 13.3539 12.6461ZM1.50014 5.9999C1.50014 5.10988 1.76406 4.23985 2.25853 3.49983C2.753 2.75981 3.4558 2.18303 4.27807 1.84244C5.10033 1.50185 6.00513 1.41273 6.87805 1.58636C7.75096 1.76 8.55279 2.18858 9.18212 2.81792C9.81146 3.44725 10.24 4.24908 10.4137 5.12199C10.5873 5.99491 10.4982 6.89971 10.1576 7.72197C9.81701 8.54424 9.24023 9.24705 8.50021 9.74151C7.76019 10.236 6.89016 10.4999 6.00014 10.4999C4.80707 10.4986 3.66325 10.024 2.81962 9.18042C1.976 8.33679 1.50147 7.19297 1.50014 5.9999Z" fill="#292524"/>
</svg>
