<svg width="46" height="28" viewBox="0 0 46 28" fill="none" xmlns="http://www.w3.org/2000/svg">
<path d="M22.8681 15.2868C22.5746 17.1588 21.7043 18.8925 20.3785 20.2463C19.0527 21.6001 17.3376 22.5064 15.4721 22.839C13.6067 23.1716 11.684 22.9138 9.97209 22.1016C8.26016 21.2893 6.84433 19.9632 5.92199 18.308C4.99966 16.6528 4.61678 14.751 4.82675 12.8679C5.03671 10.9847 5.82906 9.21399 7.09331 7.80259C8.35756 6.39118 10.0307 5.40944 11.8795 4.99424C13.7283 4.57903 15.6606 4.75105 17.4069 5.48632L21.7759 2.46659C19.1573 0.654238 15.9951 -0.202396 12.8198 0.0404138C9.64448 0.283224 6.64928 1.6107 4.33673 3.80013C2.02417 5.98956 0.534954 8.90772 0.118946 12.065C-0.297062 15.2223 0.385446 18.4266 2.05196 21.1403C3.71848 23.854 6.2676 25.912 9.27164 26.9691C12.2757 28.0261 15.5519 28.0178 18.5505 26.9455C21.5491 25.8733 24.0878 23.8024 25.7405 21.0803C27.3933 18.3582 28.0595 15.1504 27.6275 11.9953L22.8681 15.2868Z" fill="#EA580C"/>
<path d="M22.9324 12.6872C23.228 10.8149 24.1007 9.08163 25.4287 7.72911C26.7567 6.3766 28.4737 5.47233 30.3403 5.14246C32.2069 4.81259 34.1298 5.07358 35.841 5.88901C37.5521 6.70444 38.966 8.03365 39.8855 9.69119C40.8049 11.3487 41.1841 13.2519 40.97 15.1353C40.7559 17.0187 39.9594 18.7882 38.6914 20.1972C37.4234 21.6061 35.7472 22.5841 33.8967 22.9947C32.0463 23.4053 30.1138 23.2281 28.3688 22.4877L23.9999 25.5124C26.6154 27.3325 29.7774 28.1975 32.9552 27.9621C36.133 27.7267 39.1331 26.4053 41.4519 24.2197C43.7708 22.0341 45.2671 19.1173 45.6899 15.959C46.1126 12.8007 45.436 9.59303 43.7736 6.87453C42.1112 4.15603 39.5642 2.09216 36.5602 1.02934C33.5561 -0.0334702 30.2779 -0.0305247 27.2758 1.03769C24.2737 2.1059 21.7304 4.17434 20.0729 6.89582C18.4154 9.6173 17.7445 12.8261 18.1729 15.9837L22.9324 12.6872Z" fill="#EA580C"/>
</svg>
