<svg width="224" height="52" viewBox="0 0 224 52" fill="none" xmlns="http://www.w3.org/2000/svg">
<path d="M46.8681 27.2868C46.5746 29.1588 45.7043 30.8925 44.3785 32.2463C43.0527 33.6001 41.3376 34.5064 39.4721 34.839C37.6067 35.1716 35.684 34.9138 33.9721 34.1016C32.2602 33.2893 30.8443 31.9632 29.922 30.308C28.9997 28.6528 28.6168 26.751 28.8267 24.8679C29.0367 22.9847 29.8291 21.214 31.0933 19.8026C32.3576 18.3912 34.0307 17.4094 35.8795 16.9942C37.7283 16.579 39.6606 16.7511 41.4069 17.4863L45.7759 14.4666C43.1573 12.6542 39.9951 11.7976 36.8198 12.0404C33.6445 12.2832 30.6493 13.6107 28.3367 15.8001C26.0242 17.9896 24.535 20.9077 24.1189 24.065C23.7029 27.2223 24.3854 30.4266 26.052 33.1403C27.7185 35.854 30.2676 37.912 33.2716 38.9691C36.2757 40.0261 39.5519 40.0178 42.5505 38.9455C45.5491 37.8733 48.0878 35.8024 49.7405 33.0803C51.3933 30.3582 52.0595 27.1504 51.6275 23.9953L46.8681 27.2868Z" fill="#EA580C"/>
<path d="M46.9324 24.6872C47.228 22.8149 48.1007 21.0816 49.4287 19.7291C50.7567 18.3766 52.4737 17.4723 54.3403 17.1425C56.2069 16.8126 58.1298 17.0736 59.841 17.889C61.5521 18.7044 62.966 20.0336 63.8855 21.6912C64.8049 23.3487 65.1841 25.2519 64.97 27.1353C64.7559 29.0187 63.9594 30.7882 62.6914 32.1972C61.4234 33.6061 59.7472 34.5841 57.8967 34.9947C56.0463 35.4053 54.1138 35.2281 52.3688 34.4877L47.9999 37.5124C50.6154 39.3325 53.7774 40.1975 56.9552 39.9621C60.133 39.7267 63.1331 38.4053 65.4519 36.2197C67.7708 34.0341 69.2671 31.1173 69.6899 27.959C70.1126 24.8007 69.436 21.593 67.7736 18.8745C66.1112 16.156 63.5642 14.0922 60.5602 13.0293C57.5561 11.9665 54.2779 11.9695 51.2758 13.0377C48.2737 14.1059 45.7304 16.1743 44.0729 18.8958C42.4154 21.6173 41.7445 24.8261 42.1729 27.9837L46.9324 24.6872Z" fill="#EA580C"/>
<path d="M93.0722 20.3916L90.7049 22.6453C89.0937 20.9452 87.2816 20.0951 85.2684 20.0951C84.4725 20.0817 83.682 20.2287 82.9441 20.5273C82.2062 20.8258 81.5359 21.2699 80.9733 21.833C80.4106 22.3961 79.9671 23.0668 79.6691 23.8049C79.3711 24.5431 79.2248 25.3337 79.2388 26.1296C79.2179 27.2313 79.4836 28.3196 80.0098 29.2877C80.5178 30.202 81.2755 30.9528 82.1943 31.4524C83.155 31.9809 84.2362 32.2516 85.3327 32.2382C86.2594 32.2497 87.1778 32.0626 88.0262 31.6897C89.029 31.1838 89.9356 30.5064 90.7049 29.688L92.9981 32.0801C91.9343 33.1984 90.6725 34.11 89.2766 34.7687C88.0083 35.2864 86.6479 35.5403 85.2783 35.515C84.0261 35.5578 82.7784 35.3445 81.6116 34.8882C80.4447 34.4318 79.3834 33.742 78.4926 32.861C77.6154 31.9783 76.9286 30.9251 76.4746 29.7664C76.0207 28.6077 75.8092 27.3683 75.8534 26.1247C75.8273 24.4789 76.242 22.8561 77.0544 21.4246C77.8818 20.0217 79.0785 18.8728 80.5139 18.1033C81.979 17.2626 83.6385 16.8197 85.3277 16.8184C86.7996 16.8221 88.2534 17.1432 89.5899 17.7599C90.9264 18.3765 92.1142 19.2742 93.0722 20.3916Z" fill="#EA580C"/>
<path d="M97.4494 16.4826C97.7264 16.4791 98.0012 16.5331 98.2564 16.6412C98.5116 16.7492 98.7416 16.9089 98.932 17.1102C99.1369 17.307 99.2996 17.5435 99.4101 17.8052C99.5205 18.0669 99.5765 18.3484 99.5745 18.6325C99.5767 18.913 99.5222 19.1911 99.4144 19.4501C99.3065 19.7091 99.1475 19.9437 98.9469 20.1399C98.7539 20.3377 98.5234 20.495 98.2687 20.6023C98.0141 20.7097 97.7405 20.765 97.4642 20.765C97.1878 20.765 96.9143 20.7097 96.6596 20.6023C96.405 20.495 96.1744 20.3377 95.9815 20.1399C95.7803 19.9375 95.6219 19.6966 95.5157 19.4317C95.4096 19.1668 95.3579 18.8832 95.3637 18.5979C95.359 18.3219 95.4109 18.048 95.5163 17.793C95.6218 17.5379 95.7784 17.3072 95.9766 17.1152C96.166 16.9149 96.3943 16.7554 96.6476 16.6467C96.9009 16.5379 97.1737 16.482 97.4494 16.4826ZM95.8036 21.9191H99.0803V35.0655H95.8036V21.9191Z" fill="#EA580C"/>
<path d="M112.296 21.9198H115.592V35.0662H112.296V33.6527C111.735 34.2073 111.078 34.656 110.358 34.9773C109.69 35.2499 108.974 35.3876 108.253 35.3825C107.419 35.3862 106.595 35.2117 105.835 34.8707C105.074 34.5298 104.396 34.0303 103.844 33.4056C102.6 32.078 101.932 30.3118 101.986 28.493C101.914 26.66 102.559 24.871 103.785 23.5062C104.33 22.8857 105.002 22.3904 105.756 22.0543C106.51 21.7182 107.328 21.5492 108.154 21.559C108.916 21.5536 109.672 21.705 110.373 22.0038C111.095 22.3237 111.747 22.7802 112.296 23.3481V21.9198ZM108.836 24.6281C108.36 24.6164 107.887 24.707 107.448 24.8937C107.01 25.0804 106.617 25.3589 106.296 25.7105C105.616 26.4695 105.261 27.4651 105.307 28.4831C105.271 29.5156 105.639 30.5215 106.335 31.2854C106.655 31.6391 107.046 31.9205 107.484 32.1105C107.921 32.3006 108.394 32.3951 108.871 32.3875C109.352 32.3952 109.83 32.3004 110.272 32.1096C110.714 31.9187 111.111 31.6361 111.436 31.2804C112.125 30.5017 112.481 29.4824 112.424 28.4436C112.45 27.9383 112.376 27.4329 112.207 26.9563C112.037 26.4797 111.775 26.0412 111.436 25.666C111.099 25.3157 110.693 25.0401 110.244 24.857C109.794 24.674 109.311 24.5876 108.826 24.6034L108.836 24.6281Z" fill="#EA580C"/>
<path d="M125.596 21.5588C126.824 21.5563 128.031 21.8767 129.095 22.488C130.15 23.086 131.027 23.9544 131.635 25.0037C132.243 26.0531 132.561 27.2455 132.555 28.4582C132.558 29.6728 132.239 30.8664 131.631 31.9178C131.036 32.975 130.165 33.8499 129.11 34.4483C128.04 35.0589 126.828 35.3744 125.596 35.3626C124.696 35.3762 123.803 35.2047 122.973 34.8586C122.142 34.5126 121.391 33.9995 120.768 33.3511C120.123 32.7132 119.616 31.9509 119.276 31.1105C118.936 30.2702 118.771 29.3694 118.791 28.4632C118.771 27.494 118.963 26.5321 119.354 25.6451C119.745 24.758 120.325 23.9673 121.054 23.3282C122.285 22.1781 123.911 21.5447 125.596 21.5588ZM125.65 24.6626C125.172 24.6503 124.697 24.7395 124.255 24.9244C123.814 25.1092 123.417 25.3855 123.09 25.735C122.748 26.1003 122.481 26.5299 122.305 26.999C122.129 27.4682 122.049 27.9675 122.067 28.4681C122.018 29.4896 122.373 30.4894 123.056 31.2506C123.388 31.5988 123.79 31.8724 124.235 32.053C124.681 32.2337 125.16 32.3173 125.641 32.2984C126.124 32.3147 126.606 32.2285 127.054 32.0453C127.502 31.8622 127.906 31.5863 128.24 31.2358C128.585 30.8648 128.854 30.4293 129.03 29.9544C129.206 29.4795 129.287 28.9744 129.268 28.4681C129.287 27.9649 129.206 27.4628 129.03 26.9911C128.853 26.5194 128.585 26.0874 128.24 25.7202C127.907 25.3716 127.505 25.0972 127.058 24.9149C126.612 24.7327 126.132 24.6467 125.65 24.6626Z" fill="#EA580C"/>
<path d="M137.546 31.2498C137.822 31.2414 138.096 31.2907 138.351 31.3945C138.607 31.4983 138.838 31.6544 139.029 31.8527C139.318 32.1438 139.513 32.5139 139.591 32.9163C139.669 33.3186 139.626 33.7351 139.468 34.1129C139.309 34.4908 139.042 34.813 138.7 35.0388C138.358 35.2647 137.956 35.3839 137.546 35.3815C136.998 35.3815 136.473 35.1639 136.086 34.7764C135.698 34.389 135.48 33.8636 135.48 33.3157C135.48 32.7678 135.698 32.2423 136.086 31.8549C136.473 31.4674 136.998 31.2498 137.546 31.2498ZM135.881 16.8184H139.217V29.8264H135.881V16.8184Z" fill="#EA580C"/>
<path d="M159.872 20.3916L157.509 22.6453C155.898 20.9452 154.086 20.0951 152.073 20.0951C151.276 20.0804 150.485 20.2263 149.746 20.5243C149.006 20.8223 148.335 21.2662 147.771 21.8294C147.208 22.3927 146.763 23.0638 146.465 23.8026C146.166 24.5414 146.019 25.3328 146.033 26.1296C146.013 27.2313 146.278 28.3196 146.804 29.2877C147.317 30.2022 148.077 30.9527 148.999 31.4524C149.961 31.9811 151.044 32.2518 152.142 32.2382C153.067 32.2496 153.984 32.0625 154.831 31.6897C155.836 31.1853 156.744 30.5078 157.514 29.688L159.808 32.0801C158.742 33.1963 157.48 34.1075 156.086 34.7687C154.816 35.2863 153.454 35.5403 152.083 35.515C150.833 35.5612 149.587 35.3519 148.421 34.8998C147.255 34.4477 146.194 33.7623 145.302 32.8857C144.424 32.0034 143.736 30.9504 143.281 29.7917C142.827 28.633 142.614 27.3933 142.658 26.1494C142.629 24.4948 143.046 22.863 143.864 21.4246C144.691 20.0217 145.888 18.8728 147.323 18.1033C148.787 17.2626 150.445 16.8196 152.132 16.8184C153.603 16.8228 155.056 17.1443 156.392 17.7609C157.727 18.3775 158.914 19.2748 159.872 20.3916Z" fill="#EA580C"/>
<path d="M162.201 21.9183H165.028V23.5493C165.291 22.9521 165.713 22.439 166.249 22.0666C166.742 21.7393 167.322 21.5671 167.915 21.5724C168.385 21.585 168.846 21.7033 169.264 21.9183L168.236 24.7601C167.943 24.5946 167.617 24.4951 167.282 24.4686C167.003 24.4863 166.735 24.5806 166.507 24.7411C166.278 24.9015 166.098 25.1219 165.987 25.3779C165.638 26.004 165.463 27.2362 165.463 29.0747V29.7172V35.0401H162.191L162.201 21.9183Z" fill="#EA580C"/>
<path d="M181.083 21.9198H184.385V35.0662H181.083V33.6527C180.524 34.2083 179.867 34.6571 179.146 34.9772C178.478 35.2499 177.762 35.3876 177.041 35.3825C176.208 35.3864 175.384 35.212 174.625 34.871C173.865 34.53 173.187 34.0304 172.637 33.4056C171.393 32.078 170.725 30.3117 170.779 28.493C170.707 26.6609 171.351 24.8728 172.573 23.5062C173.118 22.886 173.79 22.3908 174.544 22.0547C175.298 21.7186 176.116 21.5495 176.942 21.559C177.706 21.5536 178.463 21.7049 179.166 22.0038C179.886 22.3238 180.537 22.7803 181.083 23.3481V21.9198ZM177.624 24.6281C177.148 24.6167 176.675 24.7074 176.236 24.8941C175.798 25.0808 175.405 25.3592 175.084 25.7105C174.405 26.4703 174.05 27.4653 174.095 28.4831C174.058 29.5156 174.427 30.5215 175.123 31.2854C175.443 31.6391 175.834 31.9204 176.272 32.1105C176.709 32.3006 177.182 32.395 177.658 32.3875C178.14 32.4 178.618 32.31 179.062 32.1233C179.506 31.9367 179.905 31.6578 180.233 31.3051C180.936 30.5318 181.304 29.5119 181.256 28.4683C181.278 27.9607 181.198 27.4538 181.023 26.9771C180.847 26.5004 180.579 26.0631 180.233 25.6907C179.898 25.3347 179.492 25.0537 179.04 24.8663C178.589 24.6789 178.103 24.5893 177.614 24.6034L177.624 24.6281Z" fill="#EA580C"/>
<path d="M186.645 21.919H187.816C187.816 20.1958 187.844 19.1776 187.9 18.8646C187.93 18.5313 188.026 18.2072 188.182 17.9111C188.338 17.615 188.551 17.3529 188.809 17.1398C189.446 16.6768 190.222 16.4449 191.009 16.4825C191.804 16.5127 192.588 16.6799 193.326 16.9767V19.4478C192.947 19.3255 192.553 19.2557 192.155 19.2402C191.853 19.216 191.553 19.3021 191.31 19.4824C191.153 19.6994 191.084 19.9679 191.117 20.2336V21.8745H193.208V24.6866H191.117V35.0407H187.821V24.6866H186.649L186.645 21.919Z" fill="#EA580C"/>
<path d="M196.03 17.0508H199.332V21.9189H201.308V24.736H199.332V35.0406H196.03V24.736H194.34V21.9189H196.03V17.0508Z" fill="#EA580C"/>
</svg>
