<svg width="80" height="52" viewBox="0 0 80 52" fill="none" xmlns="http://www.w3.org/2000/svg">
<path d="M39.8681 27.2868C39.5746 29.1588 38.7043 30.8925 37.3785 32.2463C36.0527 33.6001 34.3376 34.5064 32.4721 34.839C30.6067 35.1716 28.684 34.9138 26.9721 34.1016C25.2602 33.2893 23.8443 31.9632 22.922 30.308C21.9997 28.6528 21.6168 26.751 21.8267 24.8679C22.0367 22.9847 22.8291 21.214 24.0933 19.8026C25.3576 18.3912 27.0307 17.4094 28.8795 16.9942C30.7283 16.579 32.6606 16.7511 34.4069 17.4863L38.7759 14.4666C36.1573 12.6542 32.9951 11.7976 29.8198 12.0404C26.6445 12.2832 23.6493 13.6107 21.3367 15.8001C19.0242 17.9896 17.535 20.9077 17.1189 24.065C16.7029 27.2223 17.3854 30.4266 19.052 33.1403C20.7185 35.854 23.2676 37.912 26.2716 38.9691C29.2757 40.0261 32.5519 40.0178 35.5505 38.9455C38.5491 37.8733 41.0878 35.8024 42.7405 33.0803C44.3933 30.3582 45.0595 27.1504 44.6275 23.9953L39.8681 27.2868Z" fill="#EA580C"/>
<path d="M39.9324 24.6872C40.228 22.8149 41.1007 21.0816 42.4287 19.7291C43.7567 18.3766 45.4737 17.4723 47.3403 17.1425C49.2069 16.8126 51.1298 17.0736 52.841 17.889C54.5521 18.7044 55.966 20.0336 56.8855 21.6912C57.8049 23.3487 58.1841 25.2519 57.97 27.1353C57.7559 29.0187 56.9594 30.7882 55.6914 32.1972C54.4234 33.6061 52.7472 34.5841 50.8967 34.9947C49.0463 35.4053 47.1138 35.2281 45.3688 34.4877L40.9999 37.5124C43.6154 39.3325 46.7774 40.1975 49.9552 39.9621C53.133 39.7267 56.1331 38.4053 58.4519 36.2197C60.7708 34.0341 62.2671 31.1173 62.6899 27.959C63.1126 24.8007 62.436 21.593 60.7736 18.8745C59.1112 16.156 56.5642 14.0922 53.5602 13.0293C50.5561 11.9665 47.2779 11.9695 44.2758 13.0377C41.2737 14.1059 38.7304 16.1743 37.0729 18.8958C35.4154 21.6173 34.7445 24.8261 35.1729 27.9837L39.9324 24.6872Z" fill="#EA580C"/>
</svg>
