<svg width="127" height="20" viewBox="0 0 127 20" fill="none" xmlns="http://www.w3.org/2000/svg">
<path d="M18.0722 4.39162L15.7049 6.6453C14.0937 4.94516 12.2816 4.09508 10.2684 4.09508C9.47248 4.08169 8.68201 4.22867 7.94409 4.52725C7.20617 4.82584 6.53591 5.26992 5.97326 5.83303C5.41061 6.39615 4.96708 7.06677 4.6691 7.80493C4.37112 8.54309 4.22479 9.33368 4.23883 10.1296C4.21794 11.2313 4.48362 12.3196 5.00983 13.2877C5.51781 14.202 6.27548 14.9528 7.19431 15.4524C8.15505 15.9809 9.23624 16.2516 10.3327 16.2382C11.2594 16.2497 12.1778 16.0626 13.0262 15.6897C14.029 15.1838 14.9356 14.5064 15.7049 13.688L17.9981 16.0801C16.9343 17.1984 15.6725 18.11 14.2766 18.7687C13.0083 19.2864 11.6479 19.5403 10.2783 19.515C9.02612 19.5578 7.77839 19.3445 6.61156 18.8882C5.44473 18.4318 4.38338 17.742 3.49255 16.861C2.61537 15.9783 1.92858 14.9251 1.47464 13.7664C1.02069 12.6077 0.809249 11.3683 0.85338 10.1247C0.827329 8.47888 1.24198 6.8561 2.05435 5.42456C2.88178 4.02166 4.07846 2.87285 5.51394 2.10335C6.97905 1.26264 8.63853 0.819653 10.3277 0.818359C11.7996 0.822087 13.2534 1.14323 14.5899 1.75988C15.9264 2.37653 17.1142 3.27419 18.0722 4.39162Z" fill="#EA580C"/>
<path d="M22.4494 0.482575C22.7264 0.479148 23.0012 0.533149 23.2564 0.641176C23.5116 0.749203 23.7416 0.908913 23.932 1.11024C24.1369 1.30701 24.2996 1.54347 24.4101 1.80519C24.5205 2.06691 24.5765 2.34839 24.5745 2.63246C24.5767 2.91302 24.5222 3.19113 24.4144 3.45014C24.3065 3.70915 24.1475 3.94373 23.9469 4.13986C23.7539 4.33772 23.5234 4.49497 23.2687 4.60233C23.0141 4.7097 22.7405 4.76501 22.4642 4.76501C22.1878 4.76501 21.9143 4.7097 21.6596 4.60233C21.405 4.49497 21.1744 4.33772 20.9815 4.13986C20.7803 3.93748 20.6219 3.69665 20.5157 3.43172C20.4096 3.1668 20.3579 2.8832 20.3637 2.59787C20.359 2.32195 20.4109 2.04799 20.5163 1.79295C20.6218 1.53792 20.7784 1.30724 20.9766 1.11519C21.166 0.91489 21.3943 0.755446 21.6476 0.646656C21.9009 0.537866 22.1737 0.482028 22.4494 0.482575ZM20.8036 5.91907H24.0803V19.0655H20.8036V5.91907Z" fill="#EA580C"/>
<path d="M37.2955 5.91978H40.592V19.0662H37.2955V17.6527C36.7347 18.2073 36.0784 18.656 35.3581 18.9773C34.6899 19.2499 33.9744 19.3876 33.2527 19.3825C32.4195 19.3862 31.595 19.2117 30.8347 18.8707C30.0744 18.5298 29.3957 18.0303 28.8442 17.4056C27.5999 16.078 26.9318 14.3118 26.9859 12.493C26.9137 10.66 27.5591 8.87102 28.7849 7.50625C29.3296 6.88574 30.0021 6.39042 30.7562 6.0543C31.5104 5.71818 32.3283 5.54921 33.1539 5.559C33.9163 5.55356 34.6716 5.70496 35.373 6.0038C36.0945 6.3237 36.7474 6.78019 37.2955 7.3481V5.91978ZM33.8359 8.62814C33.3597 8.61643 32.8865 8.70699 32.4483 8.8937C32.0101 9.08042 31.617 9.35895 31.2956 9.7105C30.6156 10.4695 30.2607 11.4651 30.3071 12.4831C30.2705 13.5156 30.6395 14.5215 31.3351 15.2854C31.6548 15.6391 32.0464 15.9205 32.4837 16.1105C32.9209 16.3006 33.3938 16.3951 33.8705 16.3875C34.3521 16.3952 34.8298 16.3004 35.272 16.1096C35.7142 15.9187 36.1108 15.6361 36.4356 15.2804C37.1254 14.5017 37.4806 13.4824 37.424 12.4436C37.4501 11.9383 37.3762 11.4329 37.2066 10.9563C37.0369 10.4797 36.7749 10.0412 36.4356 9.66602C36.0995 9.31574 35.6935 9.04011 35.2439 8.85704C34.7943 8.67397 34.3112 8.58756 33.826 8.60343L33.8359 8.62814Z" fill="#EA580C"/>
<path d="M50.5961 5.55882C51.8238 5.55626 53.0306 5.8767 54.0952 6.48797C55.1503 7.08601 56.027 7.95438 56.6351 9.00371C57.2431 10.0531 57.5606 11.2455 57.5548 12.4582C57.5576 13.6728 57.2387 14.8664 56.6306 15.9178C56.0364 16.975 55.1649 17.8499 54.1101 18.4483C53.0404 19.0589 51.8277 19.3744 50.5961 19.3626C49.6964 19.3762 48.8034 19.2047 47.9728 18.8586C47.1421 18.5126 46.3915 17.9995 45.7675 17.3511C45.1235 16.7132 44.616 15.9509 44.2762 15.1105C43.9363 14.2702 43.7711 13.3694 43.7906 12.4632C43.7707 11.494 43.9629 10.5321 44.354 9.64509C44.745 8.75804 45.3253 7.96726 46.0542 7.32816C47.2854 6.17808 48.9113 5.54471 50.5961 5.55882ZM50.6505 8.66257C50.1722 8.65029 49.6968 8.73952 49.2555 8.92438C48.8142 9.10924 48.4171 9.38553 48.0904 9.73504C47.7475 10.1003 47.4805 10.5299 47.3049 10.999C47.1293 11.4682 47.0486 11.9675 47.0673 12.4681C47.0177 13.4896 47.3729 14.4894 48.0558 15.2506C48.3875 15.5988 48.7896 15.8724 49.2353 16.053C49.681 16.2337 50.1601 16.3173 50.6406 16.2984C51.1244 16.3147 51.6061 16.2285 52.0542 16.0453C52.5022 15.8622 52.9064 15.5863 53.2402 15.2358C53.5853 14.8648 53.8537 14.4293 54.0301 13.9544C54.2065 13.4795 54.2874 12.9744 54.2682 12.4681C54.2872 11.9649 54.2062 11.4628 54.0297 10.9911C53.8532 10.5194 53.5849 10.0874 53.2402 9.72022C52.9073 9.3716 52.5045 9.0972 52.0583 8.91494C51.612 8.73269 51.1323 8.64669 50.6505 8.66257Z" fill="#EA580C"/>
<path d="M62.5463 15.2498C62.8219 15.2414 63.0961 15.2907 63.3514 15.3945C63.6068 15.4983 63.8376 15.6544 64.029 15.8527C64.3176 16.1438 64.5133 16.5139 64.5914 16.9163C64.6694 17.3186 64.6264 17.7351 64.4676 18.1129C64.3089 18.4908 64.0415 18.813 63.6995 19.0388C63.3575 19.2647 62.9562 19.3839 62.5463 19.3815C61.9984 19.3815 61.473 19.1639 61.0855 18.7764C60.6981 18.389 60.4805 17.8636 60.4805 17.3157C60.4805 16.7678 60.6981 16.2423 61.0855 15.8549C61.473 15.4674 61.9984 15.2498 62.5463 15.2498ZM60.8808 0.818359H64.2168V13.8264H60.8808V0.818359Z" fill="#EA580C"/>
<path d="M84.8718 4.39162L82.5094 6.6453C80.8982 4.94516 79.0861 4.09508 77.0729 4.09508C76.2762 4.08035 75.4846 4.22633 74.7456 4.52432C74.0065 4.8223 73.335 5.26617 72.7713 5.82942C72.2076 6.39267 71.7632 7.06375 71.4646 7.80258C71.166 8.54141 71.0194 9.33284 71.0335 10.1296C71.0126 11.2313 71.2783 12.3196 71.8045 13.2877C72.3166 14.2022 73.0775 14.9527 73.9988 15.4524C74.9613 15.9811 76.0441 16.2518 77.1421 16.2382C78.0672 16.2496 78.984 16.0625 79.8307 15.6897C80.8359 15.1853 81.7444 14.5078 82.5144 13.688L84.8076 16.0801C83.7418 17.1963 82.4805 18.1075 81.086 18.7687C79.816 19.2863 78.454 19.5403 77.0828 19.515C75.8331 19.5612 74.5871 19.3519 73.4212 18.8998C72.2552 18.4477 71.1938 17.7623 70.302 16.8857C69.4239 16.0034 68.7362 14.9504 68.2814 13.7917C67.8266 12.633 67.6144 11.3933 67.6579 10.1494C67.6292 8.49482 68.0457 6.86295 68.8638 5.42456C69.6912 4.02166 70.8879 2.87285 72.3234 2.10335C73.7867 1.26261 75.4446 0.819597 77.1322 0.818359C78.6033 0.822797 80.0561 1.14428 81.3917 1.76091C82.7273 2.37754 83.9143 3.27482 84.8718 4.39162Z" fill="#EA580C"/>
<path d="M87.2013 5.91834H90.0283V7.54929C90.2909 6.95211 90.7134 6.43904 91.249 6.06661C91.7424 5.73928 92.3225 5.56715 92.9146 5.57238C93.3846 5.58501 93.8457 5.70325 94.2638 5.91834L93.2358 8.76015C92.9429 8.59459 92.6174 8.49506 92.2819 8.46855C92.0033 8.48633 91.735 8.58064 91.5066 8.74108C91.2781 8.90153 91.0983 9.1219 90.9871 9.37793C90.6378 10.004 90.4632 11.2362 90.4632 13.0747V13.7172V19.0401H87.1914L87.2013 5.91834Z" fill="#EA580C"/>
<path d="M106.083 5.91975H109.385V19.0662H106.083V17.6527C105.524 18.2083 104.867 18.6571 104.146 18.9772C103.478 19.2499 102.762 19.3876 102.041 19.3825C101.208 19.3864 100.384 19.212 99.6247 18.871C98.8652 18.53 98.1874 18.0304 97.6371 17.4056C96.3928 16.078 95.7247 14.3117 95.7788 12.493C95.7074 10.6609 96.3506 8.87285 97.5729 7.50622C98.1177 6.88597 98.7903 6.39083 99.5444 6.05473C100.298 5.71863 101.116 5.54952 101.942 5.55897C102.706 5.55356 103.463 5.70495 104.166 6.00377C104.886 6.32379 105.537 6.7803 106.083 7.34807V5.91975ZM102.624 8.62812C102.148 8.61673 101.675 8.70743 101.236 8.89413C100.798 9.08082 100.405 9.35918 100.084 9.71048C99.4049 10.4703 99.0502 11.4653 99.0951 12.4831C99.0584 13.5156 99.4274 14.5215 100.123 15.2854C100.443 15.6391 100.834 15.9204 101.272 16.1105C101.709 16.3006 102.182 16.395 102.658 16.3875C103.14 16.4 103.618 16.31 104.062 16.1233C104.506 15.9367 104.905 15.6578 105.233 15.3051C105.936 14.5318 106.304 13.5119 106.256 12.4683C106.278 11.9607 106.198 11.4538 106.023 10.9771C105.847 10.5004 105.579 10.0631 105.233 9.69071C104.898 9.33469 104.492 9.05372 104.04 8.86631C103.589 8.67889 103.103 8.58929 102.614 8.60341L102.624 8.62812Z" fill="#EA580C"/>
<path d="M111.645 5.91895H112.816C112.816 4.19575 112.844 3.17764 112.9 2.86463C112.93 2.53127 113.026 2.20717 113.182 1.9111C113.338 1.61502 113.551 1.35286 113.809 1.13978C114.446 0.676763 115.222 0.444886 116.009 0.482458C116.804 0.512663 117.588 0.679857 118.326 0.976685V3.44782C117.947 3.32555 117.553 3.25571 117.155 3.24024C116.853 3.21601 116.553 3.30206 116.31 3.48242C116.153 3.69938 116.084 3.96786 116.117 4.23364V5.87447H118.208V8.68663H116.117V19.0407H112.821V8.68663H111.649L111.645 5.91895Z" fill="#EA580C"/>
<path d="M121.03 1.05078H124.332V5.91892H126.308V8.73601H124.332V19.0406H121.03V8.73601H119.34V5.91892H121.03V1.05078Z" fill="#EA580C"/>
</svg>
